<svg width="156" height="34" viewBox="0 0 156 34" fill="none" xmlns="http://www.w3.org/2000/svg">
<path d="M45.8 8.152C47.576 8.152 49.128 8.504 50.456 9.208C51.784 9.912 52.808 10.904 53.528 12.184C54.264 13.448 54.632 14.912 54.632 16.576C54.632 18.224 54.264 19.688 53.528 20.968C52.808 22.248 51.776 23.24 50.432 23.944C49.104 24.648 47.56 25 45.8 25H39.488V8.152H45.8ZM45.536 21.448C47.088 21.448 48.296 21.024 49.16 20.176C50.024 19.328 50.456 18.128 50.456 16.576C50.456 15.024 50.024 13.816 49.16 12.952C48.296 12.088 47.088 11.656 45.536 11.656H43.592V21.448H45.536ZM61.1495 8.152V25H57.0455V8.152H61.1495ZM76.3636 8.152V11.44H71.8996V25H67.7956V11.44H63.3316V8.152H76.3636ZM82.6473 21.832H88.0233V25H78.5433V8.152H82.6473V21.832ZM100.589 22.024H94.3008L93.2928 25H88.9968L95.0928 8.152H99.8448L105.941 25H101.597L100.589 22.024ZM99.5328 18.856L97.4448 12.688L95.3808 18.856H99.5328ZM122.988 25H118.884L112.02 14.608V25H107.916V8.152H112.02L118.884 18.592V8.152H122.988V25ZM125.387 16.552C125.387 14.888 125.747 13.408 126.467 12.112C127.187 10.8 128.187 9.784 129.467 9.064C130.763 8.328 132.227 7.96 133.859 7.96C135.859 7.96 137.571 8.488 138.995 9.544C140.419 10.6 141.371 12.04 141.851 13.864H137.339C137.003 13.16 136.523 12.624 135.899 12.256C135.291 11.888 134.595 11.704 133.811 11.704C132.547 11.704 131.523 12.144 130.739 13.024C129.955 13.904 129.563 15.08 129.563 16.552C129.563 18.024 129.955 19.2 130.739 20.08C131.523 20.96 132.547 21.4 133.811 21.4C134.595 21.4 135.291 21.216 135.899 20.848C136.523 20.48 137.003 19.944 137.339 19.24H141.851C141.371 21.064 140.419 22.504 138.995 23.56C137.571 24.6 135.859 25.12 133.859 25.12C132.227 25.12 130.763 24.76 129.467 24.04C128.187 23.304 127.187 22.288 126.467 20.992C125.747 19.696 125.387 18.216 125.387 16.552ZM148.588 11.44V14.848H154.084V18.016H148.588V21.712H154.804V25H144.484V8.152H154.804V11.44H148.588Z" fill="#282938"/>
<path fill-rule="evenodd" clip-rule="evenodd" d="M5.60078 5.80005C4.85818 5.80005 4.14598 6.09505 3.62088 6.62015C3.09578 7.14525 2.80078 7.85744 2.80078 8.60005V24C2.80078 25.114 3.24328 26.1822 4.03093 26.9699C4.81859 27.7576 5.88687 28.2 7.00078 28.2C8.11469 28.2 9.18298 27.7576 9.97063 26.9699C10.7583 26.1822 11.2008 25.114 11.2008 24V8.60005C11.2008 7.85744 10.9058 7.14525 10.3807 6.62015C9.85558 6.09505 9.14339 5.80005 8.40078 5.80005H5.60078ZM7.00078 25.4C7.37208 25.4 7.72818 25.2525 7.99073 24.99C8.25328 24.7274 8.40078 24.3714 8.40078 24C8.40078 23.6287 8.25328 23.2726 7.99073 23.0101C7.72818 22.7475 7.37208 22.6 7.00078 22.6C6.62948 22.6 6.27338 22.7475 6.01083 23.0101C5.74828 23.2726 5.60078 23.6287 5.60078 24C5.60078 24.3714 5.74828 24.7274 6.01083 24.99C6.27338 25.2525 6.62948 25.4 7.00078 25.4ZM14.0008 22.9402L20.8608 16.0802C21.3857 15.5552 21.6806 14.8431 21.6806 14.1006C21.6806 13.3582 21.3857 12.6461 20.8608 12.121L18.8798 10.14C18.3547 9.61513 17.6426 9.32025 16.9002 9.32025C16.1577 9.32025 15.4457 9.61513 14.9206 10.14L14.0008 11.0598V22.9402ZM22.4008 28.2H12.7002L21.1002 19.8H22.4008C23.1434 19.8 23.8556 20.095 24.3807 20.6202C24.9058 21.1453 25.2008 21.8574 25.2008 22.6V25.4C25.2008 26.1427 24.9058 26.8548 24.3807 27.3799C23.8556 27.905 23.1434 28.2 22.4008 28.2Z" fill="#282938"/>
</svg>
